<svg width="695" height="342" viewBox="0 0 695 342" fill="none" xmlns="http://www.w3.org/2000/svg">
<path d="M349.637 96.5859C460.285 96.5862 549.982 186.283 549.982 296.931V299.431H495.524V296.931C495.524 216.362 430.209 151.047 349.64 151.047C269.071 151.047 203.755 216.362 203.755 296.931V299.431H149.293V296.931C149.294 186.285 238.99 96.5859 349.637 96.5859Z" fill="#4BCDB2" stroke="black" stroke-width="5"/>
<path d="M349.637 51.2469C485.323 51.2469 595.321 161.244 595.321 296.931V299.431H544.983V296.931C544.983 189.044 457.525 101.586 349.639 101.586C241.753 101.586 154.294 189.044 154.294 296.931V299.431H103.953V296.931C103.953 161.244 213.95 51.2471 349.637 51.2469Z" fill="#FFDA44" stroke="black" stroke-width="5"/>
<path d="M349.637 2.81262C509.289 2.81283 638.608 137.395 638.608 296.931V299.431H590.321V296.931C590.321 164.006 482.562 56.2474 349.637 56.2472C216.712 56.2472 108.953 164.006 108.953 296.931V299.431H60.1655V296.931C60.1655 137.387 189.991 2.81262 349.637 2.81262Z" fill="#FF3F62" stroke="black" stroke-width="5"/>
<path d="M349.64 146.047C432.97 146.047 500.524 213.6 500.524 296.931V299.431H441.938V296.931C441.938 245.955 400.614 204.631 349.639 204.631C298.663 204.631 257.339 245.955 257.339 296.931V299.431H198.756V296.931C198.756 213.6 266.309 146.047 349.64 146.047Z" fill="#3C66B1" stroke="black" stroke-width="5"/>
<g opacity="0.16">
<path d="M537.749 77.8807C519.966 127.387 487.749 187.177 429.694 248.151C439.18 262.913 444.705 280.463 444.705 299.315H498.288H547.75H593.091H636.666C636.664 212.97 598.174 130.403 537.749 77.8807Z" fill="#5B056E"/>
</g>
<path d="M153.396 171.5C188.57 171.5 218.659 193.2 231.043 223.931C233.797 223.523 236.617 223.3 239.493 223.3C271.413 223.3 297.291 249.176 297.291 281.098C297.291 313.017 271.415 338.895 239.493 338.896H60.2979C28.378 338.896 2.50015 313.017 2.5 281.098C2.5 249.178 28.378 223.3 60.2979 223.3C65.4601 223.3 70.4678 223.978 75.2354 225.25C87.2834 193.824 117.721 171.5 153.396 171.5Z" fill="#CCE4F7" stroke="black" stroke-width="5"/>
<g opacity="0.26">
<path d="M268.892 231.953C272.98 239.646 275.304 248.393 275.304 257.684C275.304 288.314 250.156 313.147 219.136 313.147H37.1284C27.7207 313.147 18.8614 310.852 11.0708 306.815C20.4635 324.486 39.2117 336.548 60.8247 336.548H242.832C273.853 336.548 299 311.716 299 281.086C299 259.742 286.785 241.226 268.892 231.953Z" fill="#3C66B1"/>
</g>
<path d="M548.396 171.5C583.57 171.5 613.659 193.2 626.043 223.931C628.797 223.523 631.617 223.3 634.493 223.3C666.413 223.3 692.291 249.176 692.291 281.098C692.291 313.017 666.415 338.895 634.493 338.896H455.298C423.378 338.896 397.5 313.017 397.5 281.098C397.5 249.178 423.378 223.3 455.298 223.3C460.46 223.3 465.468 223.978 470.235 225.25C482.283 193.824 512.721 171.5 548.396 171.5Z" fill="#CCE4F7" stroke="black" stroke-width="5"/>
<g opacity="0.26">
<path d="M663.892 231.953C667.98 239.646 670.304 248.393 670.304 257.684C670.304 288.314 645.156 313.147 614.136 313.147H432.128C422.721 313.147 413.861 310.852 406.071 306.815C415.464 324.486 434.212 336.548 455.825 336.548H637.832C668.853 336.548 694 311.716 694 281.086C694 259.742 681.785 241.226 663.892 231.953Z" fill="#3C66B1"/>
</g>
</svg>
